# xmcd
#
# Track frame offsets: 
#        150
#        26582
#        42055
#        58110
#        86852
#        94112
#        116577
#        135167
#        156975
#        179970
#        211642
#        239865
#
# Disc length: 3382 seconds
#
# Revision: 1
# Processed by: cddbd v1.5.2PL0 Copyright (c) Steve Scherf et al.
# Submitted via: ExactAudioCopyFreeDBPlugin 1.0
#
DISCID=a70d340c
DTITLE=MARITIMA - CHORO CLUB
DYEAR=2001
DGENRE=Instrumental
TTITLE0=Vistando Fortaleza
TTITLE1=Baiao De Dois
TTITLE2=Noel
TTITLE3=Maritima
TTITLE4=Jota No Frevo
TTITLE5=Alvorada
TTITLE6=Memorias
TTITLE7=Floresta Das Lembrancas
TTITLE8=Paradox De Allbass
TTITLE9=Rio
TTITLE10=Lua Do Meio Dia
TTITLE11=Cancao Para Conservatoria
EXTD=
EXTT0=
EXTT1=
EXTT2=
EXTT3=
EXTT4=
EXTT5=
EXTT6=
EXTT7=
EXTT8=
EXTT9=
EXTT10=
EXTT11=
PLAYORDER=
